<svg xmlns="http://www.w3.org/2000/svg" width="15.667" height="16.827" viewBox="0 0 15.667 16.827">
  <g id="downloads" transform="translate(-198.799 -117.6)">
    <path id="Path_22120" data-name="Path 22120" d="M198.8,344.793a2.031,2.031,0,0,0,2.031,2.031h11.6a2.031,2.031,0,0,0,2.031-2.031V341.6h-1.741v3.191a.29.29,0,0,1-.29.29h-11.6a.29.29,0,0,1-.29-.29V341.6H198.8Z" transform="translate(0 -212.397)" fill="#f15a5c"/>
    <path id="Path_22121" data-name="Path 22121" d="M262.9,117.6v9.215l-2.611-2.611-1.23,1.23,4.1,4.1a.87.87,0,0,0,1.23,0l4.1-4.1-1.23-1.23-2.611,2.611V117.6Z" transform="translate(-57.135 0)" fill="#f15a5c"/>
  </g>
</svg>
