<svg xmlns="http://www.w3.org/2000/svg" width="43" height="43" viewBox="0 0 43 43">
  <g id="Setting" transform="translate(-1436 -272)">
    <g id="Ellipse_11236" data-name="Ellipse 11236" transform="translate(1436 272)" fill="#fff" stroke="#42424f" stroke-width="1">
      <circle cx="21.5" cy="21.5" r="21.5" stroke="none"/>
      <circle cx="21.5" cy="21.5" r="21" fill="none"/>
    </g>
    <g id="noun-setting-3806919" transform="translate(1338.004 244.007)">
      <path id="Path_21900" data-name="Path 21900" d="M133.015,47.03l-3.086-.488a10.512,10.512,0,0,0-.626-1.506l1.824-2.514a1.994,1.994,0,0,0-.191-2.577l-1.188-1.209a1.983,1.983,0,0,0-2.577-.191l-2.524,1.845a10.618,10.618,0,0,0-1.506-.636l-.488-3.086a1.983,1.983,0,0,0-1.962-1.676h-1.7a1.983,1.983,0,0,0-1.962,1.676l-.488,3.086a10.618,10.618,0,0,0-1.506.636l-2.514-1.835a1.994,1.994,0,0,0-2.577.191l-1.209,1.188a1.983,1.983,0,0,0-.191,2.577l1.835,2.524h0a10.51,10.51,0,0,0-.626,1.506l-3.086.488A1.983,1.983,0,0,0,105,48.992v1.7a1.983,1.983,0,0,0,1.676,1.962l3.086.488a10.513,10.513,0,0,0,.626,1.506l-1.824,2.514a1.994,1.994,0,0,0,.191,2.577l1.2,1.2a1.983,1.983,0,0,0,2.577.191l2.524-1.835a10.621,10.621,0,0,0,1.506.636l.488,3.086a1.983,1.983,0,0,0,1.951,1.676h1.7a1.983,1.983,0,0,0,1.962-1.676l.488-3.086a10.618,10.618,0,0,0,1.506-.636l2.524,1.835h0a1.983,1.983,0,0,0,2.577-.191l1.2-1.2a1.983,1.983,0,0,0,.191-2.577L129.3,54.634a10.52,10.52,0,0,0,.626-1.506l3.086-.488a1.983,1.983,0,0,0,1.676-1.951v-1.7a1.983,1.983,0,0,0-1.676-1.962Zm-13.172,8.908a6.108,6.108,0,1,1,4.309-1.789A6.1,6.1,0,0,1,119.843,55.938Z" transform="translate(0)" fill="#42424f"/>
      <path id="Path_21901" data-name="Path 21901" d="M292.324,218.352a3.977,3.977,0,1,1-3.977-3.977,3.977,3.977,0,0,1,3.977,3.977" transform="translate(-168.504 -168.511)" fill="#42424f"/>
    </g>
  </g>
</svg>
