<svg xmlns="http://www.w3.org/2000/svg" width="43" height="43" viewBox="0 0 43 43">
  <g id="Sound" transform="translate(-1436 -272)">
    <g id="Ellipse_11236" data-name="Ellipse 11236" transform="translate(1436 272)" fill="#fff" stroke="#42424f" stroke-width="1">
      <circle cx="21.5" cy="21.5" r="21.5" stroke="none"/>
      <circle cx="21.5" cy="21.5" r="21" fill="none"/>
    </g>
    <g id="sound-2" data-name="sound" transform="translate(1345 208.196)">
      <path id="Path_21895" data-name="Path 21895" d="M98,181.2v7.46h0a2.175,2.175,0,0,0,2.174,2.174H103.4V179.026h-3.231A2.174,2.174,0,0,0,98,181.2Z" transform="translate(0 -100.011)" fill="#42424f"/>
      <path id="Path_21896" data-name="Path 21896" d="M222.765,97.037a.987.987,0,0,0,.986-.986V73.79a.986.986,0,0,0-1.536-.819l-9.007,6.045V90.825l9.007,6.045a.986.986,0,0,0,.55.167Z" transform="translate(-108.471 0)" fill="#42424f"/>
      <path id="Path_21897" data-name="Path 21897" d="M431.521,199.982a.234.234,0,0,0-.306.022l-.839.839h0a.232.232,0,0,0,.035.355,4.213,4.213,0,0,1,0,6.839.232.232,0,0,0-.035.355l.839.839h0a.234.234,0,0,0,.306.022,5.852,5.852,0,0,0,0-9.271Z" transform="translate(-312.877 -119.697)" fill="#42424f"/>
      <path id="Path_21898" data-name="Path 21898" d="M471.3,160.324a.234.234,0,0,0-.316.014l-.832.832a.23.23,0,0,0,.019.342,7.467,7.467,0,0,1,0,11.519.231.231,0,0,0-.019.342l.832.832a.234.234,0,0,0,.316.014,9.1,9.1,0,0,0,0-13.895Z" transform="translate(-350.327 -82.351)" fill="#42424f"/>
      <path id="Path_21899" data-name="Path 21899" d="M511.008,120.649a.235.235,0,0,0-.32.011l-.831.831a.23.23,0,0,0,.013.336,10.738,10.738,0,0,1,0,16.175.23.23,0,0,0-.013.336l.831.831a.235.235,0,0,0,.32.011,12.37,12.37,0,0,0,0-18.53Z" transform="translate(-387.709 -44.993)" fill="#42424f"/>
    </g>
  </g>
</svg>
