<svg xmlns="http://www.w3.org/2000/svg" width="16.865" height="16.863" viewBox="0 0 16.865 16.863">
  <g id="url" transform="translate(-126.567 -58.009)">
    <path id="Path_22122" data-name="Path 22122" d="M131.376,229.185a4.794,4.794,0,0,0,3.393-1.406l2.591-2.6-1.2-1.2-2.583,2.6a3.113,3.113,0,1,1-4.4-4.4l2.591-2.591-1.192-1.192-2.6,2.585a4.807,4.807,0,0,0,3.393,8.205Z" transform="translate(0 -154.314)" fill="#f15a5c"/>
    <path id="Path_22123" data-name="Path 22123" d="M292.176,60.562a3.113,3.113,0,0,1,4.4,4.4l-2.591,2.593,1.192,1.192,2.6-2.585a4.809,4.809,0,0,0-6.8-6.8l-2.585,2.6,1.2,1.2Z" transform="translate(-155.699 0)" fill="#f15a5c"/>
    <path id="Path_22124" data-name="Path 22124" d="M248.91,185.306l6.456-6.456,1.2,1.2-6.456,6.456Z" transform="translate(-117.711 -116.266)" fill="#f15a5c"/>
  </g>
</svg>
