<svg xmlns="http://www.w3.org/2000/svg" width="15.695" height="21.5" viewBox="0 0 15.695 21.5">
  <g id="voice-record" transform="translate(-157.412 -23.62)">
    <path id="Path_22115" data-name="Path 22115" d="M172.5,262.242a.721.721,0,0,0-.82.606,6.5,6.5,0,0,1-12.836,0,.721.721,0,1,0-1.426.214,7.918,7.918,0,0,0,7.131,6.632v3.6a.713.713,0,1,0,1.426,0v-3.6a7.952,7.952,0,0,0,7.131-6.632A.748.748,0,0,0,172.5,262.242Z" transform="translate(0 -228.888)" fill="#f15a5c"/>
    <path id="Path_22116" data-name="Path 22116" d="M232.492,37.882a5.006,5.006,0,0,0,4.992-4.992V28.612a4.992,4.992,0,0,0-9.983,0V32.89A5.006,5.006,0,0,0,232.492,37.882Zm-3.565-9.27a3.565,3.565,0,0,1,7.131,0V32.89a3.565,3.565,0,0,1-7.131,0Z" transform="translate(-67.232)" fill="#f15a5c"/>
  </g>
</svg>
